<svg width="143" height="140" viewBox="0 0 143 140" fill="none" xmlns="http://www.w3.org/2000/svg">
    <g opacity="0.6" clip-path="url(#clip0_12047_117059)">
        <path
            d="M90.7823 31.4855H52.2501C51.372 31.4865 50.5302 31.8369 49.9093 32.4596C49.2884 33.0823 48.9391 33.9266 48.938 34.8073V120.7L48.4964 120.835L39.0438 123.738C38.5958 123.875 38.112 123.828 37.6984 123.608C37.2849 123.387 36.9754 123.011 36.8381 122.562L8.72094 30.4468C8.58411 29.9975 8.63074 29.5121 8.8506 29.0972C9.07045 28.6824 9.44553 28.3721 9.89341 28.2345L24.4598 23.761L66.6884 10.7968L81.2547 6.32339C81.4764 6.25497 81.7093 6.23106 81.9402 6.25303C82.1711 6.275 82.3954 6.34243 82.6003 6.45145C82.8052 6.56047 82.9867 6.70894 83.1343 6.88837C83.2819 7.0678 83.3928 7.27466 83.4606 7.49712L90.6477 31.0425L90.7823 31.4855Z"
            fill="#F2F2F2" />
        <path
            d="M99.1905 31.0427L90.5284 2.66502C90.3842 2.19219 90.1486 1.75248 89.835 1.37102C89.5214 0.98955 89.1359 0.673803 88.7006 0.441816C88.2653 0.209829 87.7886 0.0661484 87.2979 0.0189892C86.8072 -0.02817 86.312 0.0221166 85.8407 0.16697L65.3612 6.45416L23.1349 19.4205L2.65547 25.7099C1.7041 26.0029 0.907511 26.6626 0.440544 27.544C-0.0264238 28.4255 -0.125614 29.4568 0.164749 30.4115L29.77 127.395C30.0059 128.165 30.4818 128.84 31.128 129.319C31.7742 129.799 32.5566 130.058 33.3603 130.059C33.7324 130.059 34.1023 130.003 34.4577 129.893L48.4963 125.583L48.9379 125.446V124.983L48.4963 125.118L34.3274 129.47C33.4877 129.726 32.5807 129.639 31.8054 129.226C31.0301 128.812 30.4498 128.108 30.1918 127.266L0.588781 30.2808C0.460956 29.8638 0.416406 29.4256 0.457679 28.9913C0.498953 28.557 0.625237 28.1351 0.829307 27.7498C1.03338 27.3645 1.31123 27.0233 1.64693 26.7459C1.98264 26.4685 2.36962 26.2602 2.78571 26.1329L23.2652 19.8435L65.4916 6.87937L85.9711 0.589959C86.2867 0.493359 86.6148 0.444105 86.9447 0.443796C87.6529 0.445391 88.3419 0.674369 88.9109 1.09719C89.4799 1.52001 89.899 2.11446 90.1067 2.79347L98.729 31.0427L98.8659 31.4856H99.3252L99.1905 31.0427Z"
            fill="#c73662" />
        <path
            d="M27.0883 28.307C26.6628 28.3067 26.2485 28.1696 25.9063 27.9158C25.5641 27.6621 25.312 27.305 25.1869 26.897L22.3429 17.5799C22.2665 17.3296 22.24 17.0667 22.2649 16.8061C22.2898 16.5456 22.3656 16.2925 22.488 16.0613C22.6105 15.8302 22.7771 15.6255 22.9784 15.4589C23.1798 15.2924 23.4118 15.1672 23.6614 15.0906L62.5092 3.16206C63.0132 3.00782 63.5575 3.06043 64.0229 3.30833C64.4882 3.55623 64.8365 3.97917 64.9912 4.48432L67.8352 13.8016C67.9889 14.307 67.9364 14.853 67.6893 15.3197C67.4421 15.7863 67.0205 16.1356 66.5169 16.2909L27.6689 28.2195C27.4808 28.2774 27.2851 28.3069 27.0883 28.307Z"
            fill="#c73662" />
        <path
            d="M41.9865 9.95561C44.4254 9.95561 46.4026 7.97261 46.4026 5.52645C46.4026 3.08029 44.4254 1.09729 41.9865 1.09729C39.5476 1.09729 37.5704 3.08029 37.5704 5.52645C37.5704 7.97261 39.5476 9.95561 41.9865 9.95561Z"
            fill="#c73662" />
        <path
            d="M41.9865 8.33105C43.5309 8.33105 44.7829 7.07535 44.7829 5.52636C44.7829 3.97738 43.5309 2.72168 41.9865 2.72168C40.4421 2.72168 39.1901 3.97738 39.1901 5.52636C39.1901 7.07535 40.4421 8.33105 41.9865 8.33105Z"
            fill="white" />
        <path
            d="M133.064 128.927H58.4326C57.935 128.927 57.4579 128.728 57.1061 128.375C56.7542 128.022 56.5563 127.544 56.5557 127.045V37.3542C56.5563 36.8551 56.7542 36.3767 57.106 36.0238C57.4579 35.6709 57.935 35.4724 58.4326 35.4718H133.064C133.562 35.4724 134.039 35.6709 134.39 36.0238C134.742 36.3767 134.94 36.8551 134.941 37.3542V127.045C134.94 127.544 134.742 128.022 134.39 128.375C134.039 128.728 133.562 128.927 133.064 128.927Z"
            fill="#E6E6E6" />
        <path
            d="M98.7291 31.0426H52.25C51.255 31.044 50.301 31.4411 49.5974 32.1468C48.8937 32.8526 48.4978 33.8093 48.4964 34.8074V125.118L48.938 124.983V34.8074C48.9391 33.9267 49.2884 33.0824 49.9093 32.4597C50.5302 31.8369 51.372 31.4866 52.25 31.4855H98.866L98.7291 31.0426ZM139.246 31.0426H52.25C51.255 31.044 50.301 31.4411 49.5974 32.1468C48.8937 32.8526 48.4978 33.8093 48.4964 34.8074V136.235C48.4978 137.233 48.8937 138.19 49.5974 138.896C50.301 139.601 51.255 139.999 52.25 140H139.246C140.242 139.999 141.195 139.601 141.899 138.896C142.603 138.19 142.999 137.233 143 136.235V34.8074C142.999 33.8093 142.603 32.8526 141.899 32.1468C141.195 31.4411 140.242 31.044 139.246 31.0426ZM142.558 136.235C142.557 137.116 142.208 137.96 141.587 138.583C140.966 139.206 140.124 139.556 139.246 139.557H52.25C51.372 139.556 50.5302 139.206 49.9093 138.583C49.2884 137.96 48.9391 137.116 48.938 136.235V34.8074C48.9391 33.9267 49.2884 33.0824 49.9093 32.4597C50.5302 31.8369 51.372 31.4866 52.25 31.4855H139.246C140.124 31.4866 140.966 31.8369 141.587 32.4597C142.208 33.0824 142.557 33.9267 142.558 34.8074V136.235Z"
            fill="#c73662" />
        <path
            d="M116.062 40.7868H75.4344C74.9075 40.7862 74.4024 40.576 74.0298 40.2024C73.6573 39.8287 73.4477 39.3221 73.4471 38.7937V29.0495C73.4477 28.5211 73.6573 28.0145 74.0299 27.6408C74.4024 27.2672 74.9075 27.057 75.4344 27.0564H116.062C116.589 27.057 117.094 27.2672 117.467 27.6408C117.839 28.0145 118.049 28.5211 118.049 29.0495V38.7937C118.049 39.3221 117.839 39.8287 117.467 40.2024C117.094 40.576 116.589 40.7862 116.062 40.7868Z"
            fill="#c73662" />
        <path
            d="M95.7482 27.7207C98.1871 27.7207 100.164 25.7377 100.164 23.2916C100.164 20.8454 98.1871 18.8624 95.7482 18.8624C93.3093 18.8624 91.3322 20.8454 91.3322 23.2916C91.3322 25.7377 93.3093 27.7207 95.7482 27.7207Z"
            fill="#c73662" />
        <path
            d="M95.7483 25.9893C97.2338 25.9893 98.4381 24.7815 98.4381 23.2915C98.4381 21.8016 97.2338 20.5938 95.7483 20.5938C94.2627 20.5938 93.0585 21.8016 93.0585 23.2915C93.0585 24.7815 94.2627 25.9893 95.7483 25.9893Z"
            fill="white" />
    </g>
    <defs>
        <clipPath id="clip0_12047_117059">
            <rect width="143" height="140" fill="white" />
        </clipPath>
    </defs>
</svg>